<svg width="127" height="126" viewBox="0 0 127 126" fill="none" xmlns="http://www.w3.org/2000/svg">
<g clip-path="url(#clip0_5_88)">
<mask id="path-1-inside-1_5_88" fill="white">
<path d="M93.4142 56H119C121.209 56 123 57.7909 123 60V65C123 67.2091 121.209 69 119 69H98.8102C97.6406 69 96.5079 68.5899 95.6093 67.8411L94 66.5L91.366 64.1952C90.4979 63.4357 90 62.3384 90 61.1849V59.4142C90 58.5087 90.3597 57.6403 91 57C91.6403 56.3597 92.5087 56 93.4142 56Z"/>
</mask>
<path d="M93.4142 56H119C121.209 56 123 57.7909 123 60V65C123 67.2091 121.209 69 119 69H98.8102C97.6406 69 96.5079 68.5899 95.6093 67.8411L94 66.5L91.366 64.1952C90.4979 63.4357 90 62.3384 90 61.1849V59.4142C90 58.5087 90.3597 57.6403 91 57C91.6403 56.3597 92.5087 56 93.4142 56Z" fill="#003594" style="fill:#003594;fill:color(display-p3 0.0000 0.2078 0.5804);fill-opacity:1;"/>
<path d="M119 56.5C119 56.1667 119 55.8333 119 55.5C117.617 54.5588 116.235 53.6781 114.852 52.8577C107.706 48.6174 100.56 45.9906 93.4142 44.9773C89.6308 44.8352 85.7679 46.3004 82.9904 48.9904C82.9904 48.9904 82.9904 48.9904 82.9904 48.9904C80.1934 51.6579 78.5306 55.5087 78.5197 59.4142C78.5066 59.8705 78.5 60.3268 78.5 60.783C78.5 60.917 78.5 61.051 78.5001 61.1849C78.4798 65.5936 80.4755 69.9645 83.8268 72.8114C84.0776 73.0144 84.3303 73.2151 84.5854 73.413C85.2537 73.9314 86.3577 73.9519 87.6654 73.7395C87.6641 73.7859 87.8418 73.8437 87.8416 73.89C88.9186 73.6884 90.1311 73.3242 91.3515 72.9505C94.6126 73.3313 97.2123 72.0718 98.8102 71.143C99.2949 70.7533 99.7795 70.5167 100.264 70.5C106.509 70.2842 112.755 70.1136 119 69.9532C121.644 69.9579 123.912 67.5501 123.794 65C123.752 63.3333 123.71 61.6667 123.667 60C123.65 59.1706 123.406 58.3486 122.97 57.6524C122.134 56.2897 120.56 55.446 119 55.5C119 55.8333 119 56.1667 119 56.5C120.217 56.5271 121.357 57.2418 121.918 58.2756C122.21 58.8044 122.352 59.4039 122.333 60C122.29 61.6667 122.248 63.3333 122.206 65C122.192 66.7112 120.618 68.1457 119 68.0468C112.755 67.8864 106.509 67.7158 100.264 67.5C99.7795 67.4833 99.2949 67.2467 98.8102 66.857C98.0907 65.934 98.3827 63.839 99.8672 62.7317C100.015 61.4639 100.154 60.2057 100.158 59.11L100.335 59.2605C100.371 57.9361 100.205 56.8446 99.6021 56.2511C99.3721 56.0245 99.1396 55.8006 98.9051 55.5791C100.537 56.9353 101.51 59.0518 101.5 61.1849C101.5 61.051 101.5 60.917 101.5 60.783C101.5 60.3268 101.493 59.8705 101.48 59.4142C101.463 61.53 100.536 63.6031 99.0096 65.0096C99.0096 65.0096 99.0096 65.0096 99.0096 65.0096C97.4931 66.4295 95.4079 67.1584 93.4142 67.0227C100.56 66.0094 107.706 63.3826 114.852 59.1423C116.235 58.3219 117.617 57.4412 119 56.5ZM119 55.5V56.5V55.5Z" fill="#003594" style="fill:#003594;fill:color(display-p3 0.0000 0.2078 0.5804);fill-opacity:1;" mask="url(#path-1-inside-1_5_88)"/>
<path d="M37.8181 93V32H65.0289C69.9145 32 74.0036 32.6453 77.2961 33.936C80.6098 35.2267 83.0951 37.0337 84.7519 39.3569C86.43 41.6802 87.2691 44.3708 87.2691 47.4287C87.2691 49.752 86.7487 51.827 85.7078 53.6538C84.667 55.4608 83.2331 56.96 81.4063 58.1514C79.5796 59.3428 77.466 60.1768 75.0657 60.6533V61.249C77.6996 61.3682 80.1318 62.0334 82.3622 63.2446C84.6139 64.4559 86.4194 66.1437 87.7789 68.3081C89.1384 70.4526 89.8181 72.9943 89.8181 75.9331C89.8181 79.2095 88.926 82.1383 87.1416 84.7197C85.3573 87.2812 82.7765 89.3066 79.399 90.7959C76.0215 92.2653 71.9219 93 67.1 93H37.8181ZM53.5902 81.1157H63.3402C66.7601 81.1157 69.2773 80.5101 70.8916 79.2988C72.5273 78.0876 73.3451 76.3997 73.3451 74.2354C73.3451 72.6667 72.9521 71.3164 72.1662 70.1846C71.3802 69.0329 71 68.5 69 68C67.6794 67.9663 65.518 68 63.5 68H58V56H53.5902V81.1157ZM53.5902 56H58H62.5C64.2206 56 65.5 56 67 56C68.3382 55.4639 69.2879 54.9644 70.0313 53.9517C70.7961 52.939 71.1784 51.7178 71.1784 50.2881C71.1784 48.2428 70.4031 46.6344 68.8524 45.4629C67.3018 44.2913 65.2095 43.7056 62.5755 43.7056H53.5902V56Z" fill="#003594" style="fill:#003594;fill:color(display-p3 0.0000 0.2078 0.5804);fill-opacity:1;"/>
<path d="M6.67854 83C5.34165 83 4.38295 84.2867 4.83821 85.5437C9.46351 98.3143 20.4976 111.704 33.2565 118.537C46.866 125.825 62.678 127.863 77.6908 124.263C92.7035 120.663 105.872 111.676 114.696 99.0077C123.18 86.8266 127.49 72.4805 126.184 57.7667C126.094 56.7576 125.237 56 124.224 56H113.253C112.054 56 111.128 57.0468 111.216 58.242C112.045 69.42 109.318 81.929 103 91C96.2556 100.683 85.4748 108.248 74 111C62.5252 113.752 50.4022 111.571 40 106C29.9725 100.63 25.3388 94.4621 20.5391 84.1712C20.2076 83.4605 19.4965 83 18.7122 83H6.67854Z" fill="#003594" style="fill:#003594;fill:color(display-p3 0.0000 0.2078 0.5804);fill-opacity:1;"/>
<path d="M119.52 42.3857C120.859 42.3857 121.818 41.0948 121.357 39.8375C116.738 27.2617 105.751 14.085 93.0494 7.35673C79.486 0.172143 63.7274 -1.83651 48.7654 1.7121C33.8033 5.26071 20.6796 14.1195 11.8856 26.6067C3.43415 38.6076 -0.860617 52.7401 0.434294 67.2358C0.524339 68.2438 1.3808 69 2.3928 69H13.3132C14.5126 69 15.4394 67.9515 15.3506 66.7554C14.5326 55.7458 17.2513 43.4321 23.5416 34.5C30.2632 24.9556 41.0076 17.4981 52.4436 14.7858C63.8797 12.0734 75.9616 14.2229 86.3287 19.7143C96.3193 25.0064 100.938 31.0837 105.719 41.2221C106.053 41.9287 106.762 42.3857 107.543 42.3857H119.52Z" fill="#003594" style="fill:#003594;fill:color(display-p3 0.0000 0.2078 0.5804);fill-opacity:1;"/>
<path d="M4 56.0769C4 55.4822 4.48215 55 5.07692 55H39C40.1046 55 41 55.8954 41 57V67C41 68.1046 40.1046 69 39 69H6C4.89543 69 4 68.1046 4 67V62.5385V57.6923V56.0769V56.0769Z" fill="#003594" style="fill:#003594;fill:color(display-p3 0.0000 0.2078 0.5804);fill-opacity:1;"/>
</g>
<defs>
<clipPath id="clip0_5_88">
<rect width="126" height="126" fill="white" style="fill:white;fill-opacity:1;" transform="translate(0.207031)"/>
</clipPath>
</defs>
</svg>
